<svg xmlns="http://www.w3.org/2000/svg" xmlns:xlink="http://www.w3.org/1999/xlink" preserveAspectRatio="xMidYMid" width="214" height="66" viewBox="0 0 214 66">
  <defs>
    <style>
      .cls-1 {
        fill: #000;
      }

      .cls-1, .cls-3 {
        fill-rule: evenodd;
      }

      .cls-2 {
        fill: #6ac045;
      }

      .cls-3 {
        fill: #fff;
      }
    </style>
  </defs>
  <g>
    <path d="M203.908,49.639 L203.908,34.427 C203.908,33.258 203.641,32.346 203.107,31.692 C202.572,31.038 201.786,30.711 200.748,30.711 C199.970,30.711 199.237,30.880 198.550,31.219 C197.863,31.557 197.206,32.011 196.580,32.581 L196.580,49.639 L189.481,49.639 L189.481,25.702 L193.878,25.702 C194.321,25.702 194.691,25.802 194.989,26.002 C195.287,26.202 195.496,26.502 195.619,26.902 L196.031,28.287 C196.489,27.856 196.962,27.456 197.451,27.087 C197.939,26.717 198.462,26.406 199.019,26.152 C199.576,25.898 200.179,25.698 200.828,25.552 C201.477,25.406 202.183,25.332 202.947,25.332 C204.244,25.332 205.393,25.560 206.393,26.013 C207.393,26.468 208.237,27.098 208.924,27.906 C209.611,28.714 210.129,29.676 210.481,30.792 C210.832,31.908 211.008,33.120 211.008,34.427 L211.008,49.639 L203.908,49.639 ZM185.085,38.421 C184.962,38.621 184.799,38.759 184.592,38.836 C184.386,38.913 184.123,38.952 183.802,38.952 L170.108,38.952 C170.337,40.952 170.940,42.403 171.917,43.303 C172.894,44.203 174.154,44.653 175.696,44.653 C176.520,44.653 177.230,44.553 177.825,44.353 C178.421,44.153 178.951,43.930 179.417,43.684 C179.883,43.438 180.310,43.215 180.699,43.014 C181.089,42.815 181.497,42.714 181.925,42.714 C182.489,42.714 182.917,42.922 183.207,43.338 L185.268,45.900 C184.535,46.746 183.745,47.435 182.898,47.966 C182.051,48.497 181.180,48.912 180.287,49.212 C179.394,49.512 178.501,49.720 177.608,49.836 C176.715,49.951 175.864,50.009 175.055,50.009 C173.390,50.009 171.829,49.735 170.371,49.189 C168.913,48.643 167.638,47.831 166.547,46.754 C165.455,45.677 164.593,44.338 163.959,42.737 C163.326,41.137 163.009,39.275 163.009,37.151 C163.009,35.551 163.280,34.035 163.822,32.604 C164.364,31.173 165.142,29.918 166.158,28.841 C167.173,27.764 168.402,26.910 169.845,26.279 C171.287,25.648 172.917,25.332 174.734,25.332 C176.306,25.332 177.745,25.579 179.051,26.071 C180.356,26.564 181.478,27.279 182.417,28.218 C183.356,29.157 184.089,30.307 184.615,31.669 C185.142,33.031 185.405,34.574 185.405,36.297 C185.405,36.836 185.383,37.275 185.337,37.613 C185.291,37.952 185.207,38.221 185.085,38.421 ZM178.822,33.135 C178.676,32.596 178.440,32.115 178.112,31.692 C177.783,31.269 177.352,30.927 176.818,30.665 C176.283,30.403 175.635,30.272 174.871,30.272 C173.512,30.272 172.451,30.661 171.688,31.438 C170.925,32.215 170.421,33.335 170.177,34.797 L179.039,34.797 C179.039,34.228 178.967,33.674 178.822,33.135 ZM160.124,31.969 C159.941,32.100 159.696,32.165 159.391,32.165 C159.131,32.165 158.826,32.131 158.475,32.061 C158.124,31.992 157.681,31.957 157.147,31.957 C155.284,31.957 153.818,32.958 152.750,34.958 L152.750,49.639 L145.651,49.639 L145.651,25.702 L149.864,25.702 C150.215,25.702 150.509,25.733 150.746,25.794 C150.983,25.856 151.181,25.952 151.342,26.083 C151.502,26.214 151.624,26.387 151.708,26.602 C151.792,26.818 151.864,27.079 151.925,27.387 L152.315,29.626 C153.185,28.272 154.162,27.202 155.246,26.417 C156.330,25.633 157.513,25.240 158.796,25.240 C159.879,25.240 160.750,25.502 161.406,26.025 L160.490,31.288 C160.429,31.611 160.307,31.838 160.124,31.969 ZM141.208,31.969 C141.025,32.100 140.781,32.165 140.476,32.165 C140.216,32.165 139.911,32.131 139.560,32.061 C139.208,31.992 138.766,31.957 138.231,31.957 C136.369,31.957 134.903,32.958 133.834,34.958 L133.834,49.639 L126.735,49.639 L126.735,25.702 L130.949,25.702 C131.300,25.702 131.594,25.733 131.831,25.794 C132.067,25.856 132.266,25.952 132.426,26.083 C132.586,26.214 132.708,26.387 132.793,26.602 C132.876,26.818 132.949,27.079 133.010,27.387 L133.399,29.626 C134.270,28.272 135.246,27.202 136.331,26.417 C137.414,25.633 138.598,25.240 139.880,25.240 C140.964,25.240 141.834,25.502 142.491,26.025 L141.575,31.288 C141.514,31.611 141.392,31.838 141.208,31.969 ZM116.923,49.362 C116.580,49.178 116.294,48.793 116.065,48.208 L115.561,46.892 C114.965,47.400 114.393,47.847 113.843,48.231 C113.294,48.616 112.725,48.943 112.137,49.212 C111.549,49.482 110.923,49.682 110.259,49.812 C109.595,49.943 108.858,50.009 108.049,50.009 C106.965,50.009 105.981,49.866 105.095,49.580 C104.210,49.295 103.458,48.874 102.840,48.318 C102.221,47.762 101.744,47.071 101.408,46.245 C101.072,45.419 100.905,44.466 100.905,43.386 C100.905,42.536 101.118,41.664 101.546,40.768 C101.973,39.873 102.714,39.059 103.767,38.325 C104.820,37.592 106.240,36.978 108.026,36.484 C109.813,35.990 112.064,35.743 114.782,35.743 L114.782,34.718 C114.782,33.305 114.496,32.283 113.923,31.654 C113.351,31.025 112.538,30.711 111.484,30.711 C110.645,30.711 109.958,30.803 109.423,30.988 C108.889,31.173 108.412,31.380 107.992,31.611 C107.572,31.842 107.164,32.050 106.767,32.234 C106.370,32.419 105.897,32.511 105.347,32.511 C104.858,32.511 104.443,32.392 104.099,32.154 C103.756,31.915 103.484,31.619 103.286,31.265 L102.004,29.026 C103.439,27.749 105.030,26.798 106.778,26.175 C108.526,25.552 110.400,25.240 112.400,25.240 C113.835,25.240 115.129,25.475 116.282,25.944 C117.435,26.414 118.412,27.068 119.213,27.906 C120.015,28.745 120.629,29.741 121.057,30.896 C121.484,32.050 121.698,33.312 121.698,34.681 L121.698,49.639 L118.446,49.639 C117.774,49.639 117.267,49.547 116.923,49.362 ZM114.782,39.944 C113.362,39.944 112.194,40.038 111.278,40.224 C110.362,40.410 109.637,40.643 109.103,40.922 C108.568,41.202 108.198,41.520 107.992,41.877 C107.786,42.234 107.683,42.622 107.683,43.041 C107.683,43.864 107.904,44.442 108.347,44.776 C108.790,45.110 109.438,45.277 110.294,45.277 C111.210,45.277 112.011,45.115 112.698,44.792 C113.385,44.469 114.080,43.946 114.782,43.222 L114.782,39.944 ZM97.836,39.506 C97.836,40.937 97.561,42.268 97.012,43.499 C96.462,44.730 95.657,45.804 94.596,46.719 C93.535,47.635 92.226,48.351 90.669,48.866 C89.111,49.382 87.333,49.639 85.333,49.639 L72.005,49.639 L72.005,16.007 L84.279,16.007 C86.584,16.007 88.546,16.222 90.165,16.653 C91.783,17.084 93.103,17.692 94.126,18.477 C95.149,19.261 95.893,20.216 96.359,21.339 C96.825,22.463 97.058,23.717 97.058,25.102 C97.058,25.856 96.951,26.583 96.737,27.283 C96.523,27.983 96.187,28.641 95.729,29.257 C95.271,29.872 94.684,30.430 93.966,30.930 C93.248,31.430 92.386,31.865 91.378,32.234 C93.577,32.773 95.203,33.646 96.256,34.854 C97.310,36.063 97.836,37.613 97.836,39.506 ZM89.020,24.028 C88.821,23.497 88.516,23.070 88.104,22.747 C87.691,22.424 87.168,22.193 86.535,22.055 C85.901,21.916 85.150,21.847 84.279,21.847 L79.745,21.847 L79.745,30.157 L83.776,30.157 C84.630,30.157 85.401,30.096 86.088,29.972 C86.775,29.849 87.359,29.634 87.840,29.326 C88.321,29.018 88.688,28.595 88.940,28.056 C89.191,27.518 89.317,26.841 89.317,26.025 C89.317,25.225 89.218,24.559 89.020,24.028 ZM89.947,37.682 C89.787,37.190 89.512,36.774 89.123,36.436 C88.733,36.097 88.218,35.835 87.577,35.651 C86.936,35.466 86.126,35.374 85.150,35.374 L79.745,35.374 L79.745,43.753 L85.195,43.753 C86.218,43.753 87.054,43.622 87.703,43.361 C88.352,43.099 88.859,42.760 89.226,42.345 C89.592,41.929 89.844,41.460 89.981,40.937 C90.119,40.414 90.188,39.883 90.188,39.344 C90.188,38.729 90.107,38.175 89.947,37.682 Z" class="cls-1"/>
    <g>
      <circle cx="32" cy="33" r="30" class="cls-2"/>
      <path d="M46.673,35.913 C47.558,37.168 48.001,38.696 48.001,40.496 C48.001,43.182 46.934,45.271 44.801,46.762 C42.667,48.253 39.553,48.998 35.460,48.998 L18.999,48.998 L18.999,18.002 L34.589,18.002 C38.595,18.002 41.585,18.747 43.559,20.238 C45.533,21.729 46.521,23.685 46.521,26.105 C46.521,27.699 46.107,29.094 45.280,30.289 C44.561,31.328 43.574,32.166 42.351,32.826 C42.550,32.896 42.758,32.955 42.950,33.035 C44.546,33.699 45.787,34.659 46.673,35.913 ZM27.534,42.666 L34.763,42.666 C36.244,42.666 37.368,42.408 38.138,41.891 C38.907,41.375 39.292,40.584 39.292,39.522 C39.292,38.459 38.907,37.670 38.138,37.153 C37.368,36.637 36.244,36.378 34.763,36.378 L27.534,36.378 L27.534,42.666 ZM36.723,25.064 C35.997,24.577 34.908,24.334 33.457,24.334 L27.534,24.334 L27.534,30.311 L33.457,30.311 C34.908,30.311 35.997,30.061 36.723,29.559 C37.448,29.057 37.811,28.304 37.811,27.300 C37.811,26.297 37.448,25.551 36.723,25.064 Z" class="cls-3"/>
    </g>
  </g>
</svg>
