<svg xmlns="http://www.w3.org/2000/svg" xmlns:xlink="http://www.w3.org/1999/xlink" preserveAspectRatio="xMidYMid" width="66" height="66" viewBox="0 0 66 66">
  <defs>
    <style>
      .cls-1 {
        fill: #6ac045;
      }

      .cls-2 {
        fill: #fff;
        fill-rule: evenodd;
      }
    </style>
  </defs>
  <g>
    <circle cx="33" cy="33" r="30" class="cls-1"/>
    <path d="M47.673,35.913 C48.558,37.168 49.001,38.696 49.001,40.496 C49.001,43.182 47.934,45.271 45.801,46.762 C43.667,48.253 40.553,48.998 36.460,48.998 L19.999,48.998 L19.999,18.002 L35.589,18.002 C39.595,18.002 42.585,18.747 44.559,20.238 C46.533,21.729 47.521,23.685 47.521,26.105 C47.521,27.699 47.107,29.094 46.280,30.289 C45.561,31.328 44.574,32.166 43.351,32.826 C43.550,32.896 43.758,32.955 43.950,33.035 C45.546,33.699 46.787,34.659 47.673,35.913 ZM28.534,42.666 L35.763,42.666 C37.244,42.666 38.368,42.408 39.138,41.891 C39.907,41.375 40.292,40.584 40.292,39.522 C40.292,38.459 39.907,37.670 39.138,37.153 C38.368,36.637 37.244,36.378 35.763,36.378 L28.534,36.378 L28.534,42.666 ZM37.723,25.064 C36.997,24.577 35.908,24.334 34.457,24.334 L28.534,24.334 L28.534,30.311 L34.457,30.311 C35.908,30.311 36.997,30.061 37.723,29.559 C38.448,29.057 38.811,28.304 38.811,27.300 C38.811,26.297 38.448,25.551 37.723,25.064 Z" class="cls-2"/>
  </g>
</svg>
